/* XPM */
static char *e38dadd8ce2447829a35f718bfa92c67JfMOP3wF7misyLZQ[] = {
/* columns rows colors chars-per-pixel */
"16 16 6 1 ",
"  c None",
". c gray3",
"X c gray8",
"o c #4B692F",
"O c #8F563B",
"+ c #FCE0A8",
/* pixels */
"      ....      ",
"    ..OOOO..    ",
"    .OOOOOO.    ",
"   .OOOOOOOO.   ",
"   .OOOOOOOO.   ",
"   .OOOO++O.    ",
"   .OXO++.+.    ",
"    .+X++.+.    ",
"     .+++++.    ",
"     ......     ",
"    .o.o++.     ",
"    .oo.oo.     ",
"     .++...     ",
"    .....o.     ",
"    .++..++.    ",
"                "
};
