/* XPM */
static char *c8bf30705e4941eba0e3337e7a2344c7VBeJKxfghayJzw08[] = {
/* columns rows colors chars-per-pixel */
"32 32 233 2 ",
"   c None",
".  c #000001",
"X  c #070403",
"o  c #020803",
"O  c #020C03",
"+  c #0F0805",
"@  c #170D07",
"#  c #110A08",
"$  c #130A09",
"%  c #130B09",
"&  c #150C09",
"*  c #031104",
"=  c #041104",
"-  c #041605",
";  c #041406",
":  c #051906",
">  c #041808",
",  c #041F0B",
"<  c #151009",
"1  c #101409",
"2  c #1D1009",
"3  c #1D1109",
"4  c #1B190A",
"5  c #1B1712",
"6  c #25180C",
"7  c #231810",
"8  c #2A1811",
"9  c #291F11",
"0  c #2C1914",
"q  c #361E10",
"w  c #381F18",
"e  c #381F19",
"r  c #072107",
"t  c #07280B",
"y  c #11290B",
"u  c #14280B",
"i  c #0A320A",
"p  c #0C3A0C",
"a  c #0F3D0D",
"s  c #0C271E",
"d  c #093810",
"f  c #0A3913",
"g  c #083E15",
"h  c #3C360B",
"j  c #242412",
"k  c #2B2813",
"l  c #2B241D",
"z  c #3A2111",
"x  c #392B17",
"c  c #2E3F1A",
"v  c #152729",
"b  c #152E31",
"n  c #312A21",
"m  c #362D24",
"M  c #323130",
"N  c #65391C",
"B  c #4A2920",
"V  c #4D2B20",
"C  c #542F20",
"Z  c #552F20",
"A  c #483720",
"S  c #46352D",
"D  c #403A30",
"F  c #0D420D",
"G  c #124417",
"H  c #104913",
"J  c #144E11",
"K  c #0E5014",
"L  c #0E5114",
"P  c #0E5617",
"I  c #0E5B19",
"U  c #0F5F1B",
"Y  c #0E5E1C",
"T  c #0C5D1F",
"R  c #1A5B14",
"E  c #27480B",
"W  c #215215",
"Q  c #1D6116",
"!  c #12651D",
"~  c #27731B",
"^  c #2E7F1F",
"/  c #105F20",
"(  c #3E5E36",
")  c #0F6D22",
"_  c #107124",
"`  c #107426",
"'  c #107626",
"]  c #1D7428",
"[  c #107B29",
"{  c #256B26",
"}  c #296D27",
"|  c #367A2C",
" . c #2D7331",
".. c #404001",
"X. c #4B401C",
"o. c #674E17",
"O. c #7B750B",
"+. c #425E25",
"@. c #42582F",
"#. c #5B4D3C",
"$. c #674821",
"%. c #624F25",
"&. c #734120",
"*. c #466621",
"=. c #253E57",
"-. c #315273",
";. c #524A4A",
":. c #524A5E",
">. c #6B5A46",
",. c #65564C",
"<. c #6E6B49",
"1. c #717B4C",
"2. c #626F65",
"3. c #6C747D",
"4. c #967118",
"5. c #805029",
"6. c #81512F",
"7. c #855634",
"8. c #8C5E3B",
"9. c #906C39",
"0. c #986D39",
"q. c #977538",
"w. c #9E743D",
"e. c #A07A2E",
"r. c #A97739",
"t. c #A27B3D",
"y. c #966B48",
"u. c #A47B41",
"i. c #2F801F",
"p. c #168029",
"a. c #198329",
"s. c #1C8529",
"d. c #1D8629",
"f. c #258927",
"g. c #218929",
"h. c #238B29",
"j. c #348C22",
"k. c #299029",
"l. c #2F9529",
"z. c #379224",
"x. c #3B9826",
"c. c #359A29",
"v. c #379B29",
"b. c #389D29",
"n. c #3B9F29",
"m. c #4C9C1F",
"M. c #71861C",
"N. c #5BA31C",
"B. c #418127",
"V. c #40A329",
"C. c #41A429",
"Z. c #6FB624",
"A. c #6DB129",
"S. c #69A634",
"D. c #4C9C5F",
"F. c #7C9660",
"G. c #808001",
"H. c #AE8F17",
"J. c #88BD15",
"K. c #B9B010",
"L. c #B79D37",
"P. c #8CB72C",
"I. c #C4AB20",
"U. c #CBB425",
"Y. c #CAB02A",
"T. c #D2BD21",
"R. c #D1BB24",
"E. c #D5B92D",
"W. c #CAA136",
"Q. c #D3AC3D",
"!. c #CDB432",
"~. c #C0C001",
"^. c #C3DE0A",
"/. c #DCD008",
"(. c #D9C41A",
"). c #D8D31A",
"_. c #E9DE11",
"`. c #D0E80A",
"'. c yellow",
"]. c #FBF50A",
"[. c #ECE112",
"{. c #F5E914",
"}. c #F7EA15",
"|. c #F7EB15",
" X c #EFD629",
".X c #F1DB24",
"XX c #EBCB33",
"oX c #E7C13E",
"OX c #969040",
"+X c #979A43",
"@X c #809052",
"#X c #B38846",
"$X c #BB8C45",
"%X c #BF9049",
"&X c #B08951",
"*X c #B18A54",
"=X c #869867",
"-X c #9A8A70",
";X c #A08769",
":X c #BD9866",
">X c #B9946F",
",X c #BD9871",
"<X c #87AD71",
"1X c #C59E40",
"2X c #D19F4C",
"3X c #D1A645",
"4X c #D0A04E",
"5X c #D7A650",
"6X c #DEAC52",
"7X c #E2B648",
"8X c #C2AE68",
"9X c #C5A17A",
"0X c #31529C",
"qX c #657E96",
"wX c #529BA0",
"eX c #38B7D4",
"rX c #808080",
"tX c #AC9C90",
"yX c #9AAB99",
"uX c #BFB39F",
"iX c #D5B48B",
"pX c #DCBD96",
"aX c #ACC6BD",
"sX c #E0C198",
"dX c #EBCFA2",
"fX c #EACDA4",
"gX c #EFD3AA",
"hX c #F4D9AE",
"jX c #F5DAB1",
"kX c #FCE3B9",
"lX c #FFE6BD",
"zX c #FFF3DE",
"xX c white",
/* pixels */
"                                                                ",
"                                                                ",
"                                                                ",
"                      [ [ k.C.C.C.j.F [ +.&.u.                  ",
"                      d.d.l.C.C.z.^ R m.M.4.#X                  ",
"                  [ d.V.C.C.C.C.R R C.'.'.'.6X6X4Xu.            ",
"            F K [ c.C.C.C.C.j.J j.S.6X6X6X6X'.'.|.5X#Xu.        ",
"          F I _ [ v.C.C.C.C.j.J j.Z.|.|.E.#XoXoXXX|.[.U.u.      ",
"        . U ) [ [ h.l.C.C.C.j.J j.A. X'.T.u.r.2X7X.X].T.u.      ",
"        . [ [ [ [ [ a.v.C.x.i.Q N.P.6X_.!.*X8.%X2X3X(.I.u.      ",
"        . [ [ [ [ [ [ p.n.~ R x.`.|.6Xu.:XiXiX*Xu.w.5.&.        ",
"    . : F [ [ [ [ [ [ [ [ U K ` ^.|.6XiXfXlXiXm .               ",
"    . : F [ [ [ [ [ [ ` P U | +XL.Y.|.jX-XD 8.7 .               ",
"    . : F [ [ ` U U  .<X=XF.@Xt.$X1XT.lXuXrX:.,.#.              ",
"    . : F [ ` Y i i @.dXkXgX9X6.W.Q.0.lXzXxX0XtX;X.             ",
"    . : F [ U i . . 9 &XhXlXpX7././.&.lXzXxX0XtX;X.             ",
"    . > F [ F .   . . & 9.wXeX8X|./.&.lXlXlXiXm .               ",
"      O * K t .   ~.K.q.x v ( ).H.e.,XsXsXsXm                   ",
"        . r ;     G.O.%.u * h R.o.A 1.1.<.>..                   ",
"          .       . X 4 H d c OXk ; K K E ..                    ",
"                  . 3 $.] [ [ [ r , [ [ J.'..                   ",
"                . =.=.+ N +.} $.} D.xX. g [ C.y .               ",
"              n ;XM s / { +.X.6 yXaXqX=.b , C.y . .             ",
"              l >.5 > ! f.B.*.G 2.3.-.;.S z W j 8 q &           ",
"                3 & 1 a i.x.b.h.f s =.&.6.0.. e Z N 3 .         ",
"            . 3 &.Z e o p ~ C.C.d.Y . &.>XzX. e Z N 3 .         ",
"            . 3 &.Z e . . . . . . . . . . . B B z .             ",
"            . & Z V e .               . . . & # #               ",
"            . & B B e .               . . . . .                 ",
"              # e e 0 .                                         ",
"                . . .                                           ",
"                                                                "
};
