/* XPM */
static char *_7a5bbf3286f4b6aca85ce043389d354ttu1QFQAxHJnDbHs[] = {
/* columns rows colors chars-per-pixel */
"33 32 190 2 ",
"   c #070707",
".  c #0C0503",
"X  c #160B07",
"o  c #031905",
"O  c #16110C",
"+  c #191612",
"@  c #24130C",
"#  c #221E0D",
"$  c #261B13",
"%  c #3A1D15",
"&  c #062405",
"*  c #0C2B07",
"=  c #08360D",
"-  c #16340E",
";  c #182918",
":  c #37250C",
">  c #2B221A",
",  c #282818",
"<  c #3A2316",
"1  c #263516",
"2  c #363B1A",
"3  c #1F2B20",
"4  c #3A2D23",
"5  c #313330",
"6  c #421F17",
"7  c #4C2616",
"8  c #45281C",
"9  c #552A15",
"0  c #562C19",
"q  c #5C3216",
"w  c #5C3119",
"e  c #613018",
"r  c #483B2E",
"t  c #463735",
"y  c #683D27",
"u  c #11430B",
"i  c #0F4E15",
"p  c #1A4413",
"a  c #135A1A",
"s  c #2C4E19",
"d  c #0E681E",
"f  c #17671C",
"g  c #136D1F",
"h  c #17701F",
"j  c #1A731D",
"k  c #304433",
"l  c #2A6A25",
"z  c #306F2E",
"x  c #4C4E17",
"c  c #6E551A",
"v  c #49641B",
"b  c #556818",
"n  c #6F7209",
"m  c #747908",
"M  c #6E6D16",
"N  c #4B4231",
"B  c #734728",
"V  c #7C5229",
"C  c #724931",
"Z  c #7D5539",
"A  c #557125",
"S  c #627B28",
"D  c #293C57",
"F  c #4A3B46",
"G  c #336A7E",
"H  c #454546",
"J  c #4C4B4C",
"K  c #534B46",
"L  c #495C4C",
"P  c #405A5C",
"I  c #5D5E5D",
"U  c #615D59",
"Y  c #556357",
"T  c #567954",
"R  c #6F6354",
"E  c #6F6764",
"W  c #726F6C",
"Q  c #6E706F",
"!  c #737373",
"~  c #717B71",
"^  c #8B6919",
"/  c #865C2A",
"(  c #875B35",
")  c #9F7625",
"_  c #966B36",
"`  c #A27D2C",
"'  c #A57232",
"]  c #B47D36",
"[  c #8B6643",
"{  c #936B49",
"}  c #9A724A",
"|  c #977657",
" . c #A37A4C",
".. c #82786E",
"X. c #807F7F",
"o. c #2C8B1F",
"O. c #32941F",
"+. c #248321",
"@. c #2D8621",
"#. c #2A8C20",
"$. c #359520",
"%. c #6D8924",
"&. c #799228",
"*. c #5E875B",
"=. c #7B9171",
"-. c #B3961D",
";. c #84A51C",
":. c #8FB21A",
">. c #91B214",
",. c #BFA81F",
"<. c #A98926",
"1. c #B98D2C",
"2. c #AF9526",
"3. c #B19924",
"4. c #B68439",
"5. c #C4AE1E",
"6. c #CAB41A",
"7. c #D1B91E",
"8. c #C9953B",
"9. c #C5A723",
"0. c #DFB135",
"q. c #9FCC15",
"w. c #BDD210",
"e. c #D7C519",
"r. c #DFD415",
"t. c #E6D917",
"y. c #F3EF0F",
"u. c #FDFD0B",
"i. c #E9E311",
"p. c #F4EE11",
"a. c #E6C827",
"s. c #F3D726",
"d. c #B18D49",
"f. c #B48A58",
"g. c #97837A",
"h. c #AC8965",
"j. c #BB986F",
"k. c #B49B71",
"l. c #BC9F73",
"z. c #BEA276",
"x. c #D29543",
"c. c #C19C71",
"v. c #C8A77A",
"b. c #CAA77B",
"n. c #376F86",
"m. c #5B628D",
"M. c #636A91",
"N. c #677095",
"B. c #5D6CA1",
"V. c #807E80",
"C. c #5B8D90",
"Z. c #7D998F",
"A. c #7DA981",
"S. c #7DAEB6",
"D. c #868786",
"F. c #8E918E",
"G. c #979497",
"H. c #9E9D9C",
"J. c #AF998A",
"K. c #B5A091",
"L. c #A5A5A5",
"P. c #A7A8A7",
"I. c #A7A8AA",
"U. c #ACABAC",
"Y. c #A0B7A1",
"T. c #B7B6B5",
"R. c #BABABA",
"E. c #C8B6A4",
"W. c #CEBEB2",
"Q. c #AAC0AB",
"!. c #D6C297",
"~. c #E3C99B",
"^. c #E6C898",
"/. c #D3C3AF",
"(. c #EBD0A1",
"). c #F2D4A3",
"_. c #E4D9BC",
"`. c #FCE1AF",
"'. c #FEE4B2",
"]. c #C4C4C4",
"[. c None",
"{. c None",
"}. c None",
"|. c None",
" X c None",
".X c None",
"XX c None",
"oX c None",
"OX c None",
"+X c None",
/* pixels */
"XX+X+X+X+X+XXXXX}.}.oX+X+X+X+X+XoXoXXX}.XX+X+X+X+X+XXXXXXXXXXX+X+X",
"XX+X+X+X+X+XXX}.XX}.XX+X+XR.=.A.A.~ I.oXoX+X+X+X+X+XXX}.}.}.XX+X+X",
"XX+X+X+X+X+XXXXX}.XX}.U.Q.T u j j u T Y.I.OX+X+X+X+XXXXXXXXXXX+X+X",
"XX+X+X+X+X+XXXXXXX}.R.3 i +.O.O.O.$.j i 3 ].OX+X+X+XXXXXXXXXXXOX+X",
"+XXXXXXXXXXX+X+X+XU.3 a g h h h h h h g a ; P.XXXXXX+X+X+X+X+XXXXX",
"+XXXXX}.XXXX+X+XH.k i #.#.o.#.o.o.#.o.#.@.a 5 F.XXXX+X+X+X+X+XXX}.",
"+XXX}.XX}.XX+X+X! & @.S :.;.&.q.q.%.;.:.S @.& Q oXXX+X+X+X+X+XXXXX",
"+XXX}.XX}.XX+XR.L p %.3.7.6.9.e.u.7.6.7.3.&.s L U.XX+X+X+X+X+XXXXX",
"OXoXXXXX}.[. XK - A <.r.<.9.e.<.p.u.5.<.t.0.%.= K |.XXOX+X+XOXXXXX",
"XX+X+X+X_.} v.Z 0 ^ t.` 8.4.2.p.u.u.5._ <.t.2.c Z v.} /.XXXXXX+X+X",
"XX+X+X+XW.C ~.~.h.<.y.8.a.9.<.u.u.5.d.f.( <.e.-. .~.C E.XX}.XX+X+X",
"XX+X+X+XXXK.| S.Z.2.y.1.t.i.t.p.9.d.b.~.v._ -.g.C.| J.[.XXXXXX+X+X",
"XX+X+X+X+XOXg.G P ) a./ 9.s.s.a._ l.).).^.( <.*.n.g.}.XX}.}.XX+X+X",
"XX+XOX+X+XOXoXH : ^ ] q ' x.x.4. .!.).K.| B 6.m J OXoXXXXXoXoXOX+X",
"+XXXXXXXXXoXOXJ n 6.q $ B ] ] B c.b. .7 > / e.m H XX+X+X+X+X+XXXXX",
"+XXXXX}.|.XXOXJ c 1.y T.M.K ( j.(.} F m.T.C 8.c H XX+X+X+X+X+XXX}.",
"+XXXXX}.}.XX+XR.R : 4 _.B.N.E.(.`./.N.B._.4 < R I.XX+X+X+X+X+XXXXX",
"+XXX}.XX}.XX+X+XR.J + k.G.]..X'.'..XQ.G.z.$ . ! oXXX+X+X+X+X+XXX}.",
"OXoXXXoXoXoXOX+X+XI.O V l.^.).).).).(.c.V 8 @ U ].oXOXOXOX+XOXoXoX",
"XX+X+X+X+X+XXXXXXXL.X 0 y } l.z.z.z.{ e 9 % 7 > I OXoX X}.XXXX+X+X",
"XX+X+X+X+X+XXXXXoXH.O D I.! 1 z z z l p O   X E XX+XXX}.XXXXXX+X+X",
"XX+X+X+X+X+XXXXXF.t 4 D R N = d d d d s <   ! {.+X+XXX}.}.}.XX+X+X",
"XX+X+X+X+X+XXXXXW X 0 t < : x >.>.b s x v u Y R.+X+XXX}.}.}.XX+X+X",
"oXOXOX+XOXOXoXoX! @ Z [ > # n e.w.M x b O.h o ~ +XOXoXoXoXoXoXOXOX",
"+XXXXXXX}.XX+X+XD.r j.!.r = j j j h o.O.$.g ; ~ XXXX+X+X+X+X+XXXXX",
"+XXX}.}.}.XX+X+XoXH., $ * i j O.O.O.O.o.f o G.{.XXXX+X+X+X+X+XXX}.",
"+XXX}.XXXXXX+X+X+XoXT.L.5 o & * * * 1 2 >   L.oXXXXX+X+X+X+X+XXXXX",
"+XXX}.}.XXXX+X+X+X+X+XoXP.N.V.V.D.5 X 8 7 $ K L.XXXX+X+X+X+X+XXXXX",
"OXoXoXoXoXoXOXOXOXOXOXoXoXOXoXOXOXJ X 0 q 7 . ! oXoXOXOXOXOXOXoXoX",
"XX+X+X+X+X+XXX}.}.}.XX+X+X+X+X+XXXU % 9 9 9 $ F.+X+XXX}.XXXXXX+X+X",
"XX+X+X+X+X+XXXXX}.XXXX+X+X+X+X+XXX{.W O O + H.OX+X+XXXXX}.XXXX+X+X",
"XX+X+X+X+X+XXXXXXXXXXX+X+X+X+X+XXXXX].I.P.T.oX+X+X+XXXXX}.}.XX+X+X"
};
