/* XPM */
static char *_585567b1f3143bae50da038be085a3a5fYnHEfSFxGnqXfn[] = {
/* columns rows colors chars-per-pixel */
"16 16 5 1 ",
"  c None",
". c gray3",
"X c #4B692F",
"o c #8F563B",
"O c #FCE0A8",
/* pixels */
"      ...       ",
"    ..ooo..     ",
"   .ooooooo.    ",
"   .ooooooo.    ",
"   .ooooooo.    ",
"   .ooooooo.    ",
"  .OoooooooO.   ",
"   .ooooooo.    ",
"   ..OOOOO..    ",
"  .X......XX.   ",
"  ...XXXXX.XO.  ",
"  .O........O.  ",
"   ..XX.XX. ..  ",
"     .O.XX.     ",
"      ..OO.     ",
"                "
};
