/* XPM */
static char *d5a283e0b4a54a668412717028e43d56ZiaOyLMpIS3RU2CC[] = {
/* columns rows colors chars-per-pixel */
"16 16 6 1 ",
"  c None",
". c gray3",
"X c gray8",
"o c #4B692F",
"O c #8F563B",
"+ c #FCE0A8",
/* pixels */
"      ....      ",
"    ..OOOO..    ",
"    .OOOOOO.    ",
"   .OOOOOOOO.   ",
"   .OOOOOOOO.   ",
"    .O++OOOO.   ",
"    .+.++OXO.   ",
"    .+.++X+.    ",
"    .+++++.     ",
"     ......     ",
"    ..++o.o.    ",
"   .+.oooo.o.   ",
"    .......+.   ",
"     .oo.o..    ",
"    .++..++.    ",
"                "
};
