/* XPM */
static char *_51ec5c3b67a4accb2a3106e28d0994cjDfU77zFlP9okUSE[] = {
/* columns rows colors chars-per-pixel */
"32 32 202 2 ",
"   c None",
".  c #000001",
"X  c #010702",
"o  c #070404",
"O  c #0A0604",
"+  c #0C0704",
"@  c #020802",
"#  c #020B03",
"$  c #030D03",
"%  c #020C05",
"&  c #060F05",
"*  c #170D07",
"=  c #1B0F0C",
"-  c #041405",
";  c #051805",
":  c #051A06",
">  c #031508",
",  c #031608",
"<  c #031709",
"1  c #031909",
"2  c #091E09",
"3  c #1D160C",
"4  c #0A1815",
"5  c #1F1C18",
"6  c #321F10",
"7  c #311C16",
"8  c #072508",
"9  c #04230C",
"0  c #05250D",
"q  c #05270E",
"w  c #0D2109",
"e  c #0D250B",
"r  c #082808",
"t  c #082908",
"y  c #082A0A",
"u  c #082E0C",
"i  c #17220A",
"p  c #0B350B",
"a  c #0B370B",
"s  c #09350F",
"d  c #0C3A0C",
"f  c #173A0F",
"g  c #063111",
"h  c #083E15",
"j  c #173E17",
"k  c #333301",
"l  c #272410",
"z  c #2B241D",
"x  c #312514",
"c  c #011C21",
"v  c #111C28",
"b  c #3D3D3E",
"n  c #452714",
"m  c #4D2B16",
"M  c #4F2D1A",
"N  c #42311B",
"B  c #43341A",
"V  c #5C341A",
"C  c #523E21",
"Z  c #0D420D",
"A  c #0D470F",
"S  c #0A4112",
"D  c #0C4110",
"F  c #084016",
"G  c #0D4A11",
"H  c #0E4A11",
"J  c #0E4E13",
"K  c #0D4C15",
"L  c #0C4C16",
"P  c #0A4A19",
"I  c #0A4B19",
"U  c #0B4F1A",
"Y  c #174A15",
"T  c #174819",
"R  c #0E5315",
"E  c #0D5117",
"W  c #0D5217",
"Q  c #0D511B",
"!  c #0D5618",
"~  c #0B521C",
"^  c #0E5918",
"/  c #0F5B19",
"(  c #175613",
")  c #165D17",
"_  c #185D19",
"`  c #214211",
"'  c #254212",
"]  c #215215",
"[  c #225616",
"{  c #0F631D",
"}  c #0F661F",
"|  c #0F671F",
" . c #1D6719",
".. c #1D6B1B",
"X. c #3D680B",
"o. c #246D19",
"O. c #256F1A",
"+. c #26761D",
"@. c #2C761D",
"#. c #2C7D1E",
"$. c #327315",
"%. c #0B5839",
"&. c #394029",
"*. c #0D6723",
"=. c #0F6D22",
"-. c #0F7023",
";. c #177023",
":. c #177422",
">. c #107124",
",. c #107225",
"<. c #107B29",
"1. c #137E29",
"2. c #147E29",
"3. c #157F29",
"4. c #246F27",
"5. c #306F27",
"6. c #4A4118",
"7. c #64581C",
"8. c #567B09",
"9. c #467912",
"0. c #624224",
"q. c #624A27",
"w. c #6E4B21",
"e. c #734120",
"r. c #7B4A25",
"t. c #7E4C25",
"y. c #7D4D27",
"u. c #7D4D2B",
"i. c #73562E",
"p. c #446E3C",
"a. c #333B47",
"s. c #243C53",
"d. c #395A4F",
"f. c #504843",
"g. c #5F4E46",
"h. c #8D661F",
"j. c #95731B",
"k. c #87582D",
"l. c #895A38",
"z. c #8C5E3C",
"x. c #93612F",
"c. c #836334",
"v. c #8E6D37",
"b. c #906434",
"n. c #976B45",
"m. c #9B7048",
"M. c #A47B41",
"N. c #A77E4C",
"B. c #8C7D68",
"V. c #2F821F",
"C. c #1F8427",
"Z. c #1A8329",
"A. c #268526",
"S. c #278E29",
"D. c #3A9625",
"F. c #3C9A26",
"G. c #319729",
"H. c #379C29",
"J. c #3D9829",
"K. c #3B9F29",
"L. c #519119",
"P. c #7C8202",
"I. c #57A31E",
"U. c #4B9027",
"Y. c #459329",
"T. c #549927",
"R. c #5C8436",
"E. c #41A429",
"W. c #679569",
"Q. c #86A107",
"!. c #A0A802",
"~. c #A68D2A",
"^. c #B28F37",
"/. c #B89A39",
"(. c #B8AC27",
"). c #C0A32E",
"_. c #C8B027",
"`. c #CCCC00",
"'. c #C9E40B",
"]. c #D9ED08",
"[. c #D4E015",
"{. c yellow",
"}. c #F2DE21",
"|. c #AE8753",
" X c #AB835E",
".X c #B6905A",
"XX c #BFAA4A",
"oX c #BE9A66",
"OX c #C99748",
"+X c #C29E6C",
"@X c #C19E78",
"#X c #C5A17A",
"$X c #058A9E",
"%X c #7B8796",
"&X c #66D699",
"*X c gray52",
"=X c #9F8F85",
"-X c #ABB0B6",
";X c #DDBE95",
":X c #F7DDB2",
">X c #F7DDB3",
",X c #FBE1B8",
/* pixels */
"                                                                ",
"                            . c.M.M.M.e.                        ",
"                            B ~.).).).x.                        ",
"                          w XX[.].].].XX/.^.                    ",
"                      & f F.F.F.F.F.F.F.'.(.v.t.                ",
"                    . [ @.( ( ( ( ( ( ( I.Y.R.OXM.              ",
"                  . F _ O.#.#.#.#.#.#.#.O.:.T.}.M.              ",
"                  . L ..V.E.E.E.E.E.E.E.( R $.Q.M.              ",
"                  $ D +.D.E.E.E.E.E.E.K.) A Z Z                 ",
"            |.+X;XZ | /  .E.E.E.K.H.H.<.*.! G Z ;XoXN.          ",
"          e.#X>X,XZ A { C.E.E.E.S.1.3.<.9 P | Z ,X>X Xe.        ",
"            z.m..XZ ; U 1.Z.Z.Z.1.<.<.<.1 u G Z .Xn.l.          ",
"              y.k.$Xc s { <.<.<.<.=./ g y a %.$Xk.r.            ",
"                n &X&.i S <.<.<.=.R y 1 d ' p.&Xn               ",
"                . `.h.6 0 <.<.,.G y $ X.X.7.j.`..               ",
"                  . c.N 0 <.<.J ; - Z {.{._.i..                 ",
"                    . . - Z Z % y 8.{.. . . .                   ",
"                    . . - Z Z % P.!.k a $ .                     ",
"                  . *Xb @ ; ; 8 9.L.P 6.T q                     ",
"                  . =Xf.@ : g R =.<.<.n W.d.v                   ",
"                  . m l e ' 4.4.4.4.4.. -X%Xa.*                 ",
"                    % Q 5.w.w.w.w.w.w.X s.g.u.e..               ",
"                  . ~ A.J.U.U.U.U.U.U.s 4 B.@Xe..               ",
"                    > w w w 2 :.G.E.E.=.- 5 z *                 ",
"                    . x C C C j Y ] ] h > . . .                 ",
"                    = 0.b.b.q.3 . . . .                         ",
"                  . 7 M V V .                                   ",
"                    o O + +                                     ",
"                                                                ",
"                                                                ",
"                                                                ",
"                                                                "
};
