/* XPM */
static char *_822aaf0c7dd4a40c4f627b073dd5ca5v3KlBgR39H5lLRt6[] = {
/* columns rows colors chars-per-pixel */
"32 32 186 2 ",
"   c None",
".  c #000001",
"X  c #030B03",
"o  c #0A0707",
"O  c #120B09",
"+  c #140B07",
"@  c #031105",
"#  c #041E0B",
"$  c #081909",
"%  c #1A140C",
"&  c #181E0A",
"*  c #1B1712",
"=  c #25170E",
"-  c #2B1B14",
";  c #251511",
":  c #381F18",
">  c #082708",
",  c #0A320A",
"<  c #0C3C0C",
"1  c #062E10",
"2  c #083B13",
"3  c #0A3513",
"4  c #19240F",
"5  c #2D251D",
"6  c #262912",
"7  c #3D2214",
"8  c #152729",
"9  c #332B22",
"0  c #4B2C16",
"q  c #41241C",
"w  c #573119",
"e  c #5A3F1D",
"r  c #48371C",
"t  c #673A1E",
"y  c #4C2A20",
"u  c #532E20",
"i  c #6A3B20",
"p  c #0D420D",
"a  c #0E4D13",
"s  c #0A4A19",
"d  c #154811",
"f  c #0E5114",
"g  c #0C531C",
"h  c #0E5C1C",
"j  c #1A5B14",
"k  c #135918",
"l  c #215215",
"z  c #0F661F",
"x  c #216E1B",
"c  c #27731B",
"v  c #2E7F1F",
"b  c #307317",
"n  c #1F463D",
"m  c #245F22",
"M  c #0E6C24",
"N  c #106E23",
"B  c #1D6821",
"V  c #107326",
"C  c #107B29",
"Z  c #177628",
"A  c #346C30",
"S  c #2D6D27",
"D  c #66411E",
"F  c #425B2A",
"G  c #5D5623",
"H  c #55432E",
"J  c #754724",
"K  c #6B5827",
"L  c #7B5D31",
"P  c #674821",
"I  c #5A7B35",
"U  c #7A612E",
"Y  c #7F7835",
"T  c #524A48",
"R  c #605241",
"E  c #736653",
"W  c #595568",
"Q  c #5F617A",
"!  c #626F65",
"~  c #647767",
"^  c #85591C",
"/  c #80502B",
"(  c #8C5E31",
")  c #9C6B35",
"_  c #9B753B",
"`  c #896A3F",
"'  c #A07A2E",
"]  c #A27739",
"[  c #8B6241",
"{  c #867157",
"}  c #887854",
"|  c #9C7948",
" . c #A47B41",
".. c #1C8429",
"X. c #168029",
"o. c #268727",
"O. c #338F24",
"+. c #2A9129",
"@. c #3C9926",
"#. c #369A29",
"$. c #3A9E29",
"%. c #349225",
"&. c #3FA128",
"*. c #668E10",
"=. c #66AF1D",
"-. c #76A519",
";. c #4B8627",
":. c #499528",
">. c #6D8B35",
",. c #41A429",
"<. c #60A22B",
"1. c #6EB721",
"2. c #9A9608",
"3. c #9E851A",
"4. c #B29419",
"5. c #94AE0B",
"6. c #A0A001",
"7. c #BFBF00",
"8. c #B9B010",
"9. c #BFA717",
"0. c #8B9B30",
"q. c #AD852F",
"w. c #AC9D30",
"e. c #BA9B32",
"r. c #B69534",
"t. c #CFBD0F",
"y. c #C5AE1D",
"u. c #C09D38",
"i. c #C7AC2B",
"p. c #D2BD21",
"a. c #CBBA34",
"s. c #CAAE35",
"d. c #E1BB3E",
"f. c #DCD008",
"g. c #D8C819",
"h. c #E8DE10",
"j. c #DDE50C",
"k. c #F4EF08",
"l. c #EBE112",
"z. c #F4E814",
"x. c #F5F107",
"c. c #D6D527",
"v. c #E4D23F",
"b. c #898459",
"n. c #B38745",
"m. c #AB8257",
"M. c #A68D43",
"N. c #978F6D",
"B. c #BB9665",
"V. c #BD9E78",
"C. c #A08769",
"Z. c #A4A97B",
"A. c #C59E40",
"S. c #C59948",
"D. c #CFA04E",
"F. c #D1A14E",
"G. c #D8AD48",
"H. c #E0C768",
"J. c #5A6B98",
"K. c #636E92",
"L. c #657DB5",
"P. c #7486B1",
"I. c #68A4A4",
"U. c #35BCE8",
"Y. c #A59490",
"T. c #B4A98D",
"R. c #A0A0A0",
"E. c #C5AA87",
"W. c #D5B48B",
"Q. c #D8B78E",
"!. c #DCBD94",
"~. c #D0B89B",
"^. c #E0C198",
"/. c #E5C89C",
"(. c #F1D898",
"). c #FFEC8E",
"_. c #D3CEB2",
"`. c #EBCFA2",
"'. c #EFD3AA",
"]. c #E9D9B8",
"[. c #F9DFB5",
"{. c #FFE7BE",
"}. c #C4DECA",
"|. c #FFEDCD",
" X c #FFE9C5",
".X c #FFFEFB",
/* pixels */
"                                                                ",
"                                                                ",
"                                                                ",
"                   ./ G C f c ,.,.+.C                           ",
"             .D.d.h.q.` O.j c ,.,.$.#.,...C                     ",
"          r.p.A.S.g.D.0.@.j c ,.,.,.,.,.+.+.C f                 ",
"        r.i.h.u.n.n.G.c.1.c c @.,.,.,.,.,.#...h f               ",
"      _ g.h.n.S.F.F.z.x.f.1.c d @.@.@.@.&.,.,...V a             ",
"      / t.z.F.] ) S.h.l.w.<.c f @.v j j %.,.,...V N a           ",
"      J 3.9.S.| | V.s.p.y.0.;.c c c c c o.+.+.X.C C f p         ",
"          J L V.Q.!.B.F.k.e.>.O.k x O.#...C C C C C k f         ",
"            . C.^.{.^.H.k.e.I C C k f V C C C C C C C z p       ",
"            . w w . T.).x.e.( t d p p p M C C C C C C z p       ",
"          5 { W Q Y.].(.i.D.| J b.N.Z.Z.A h g 2 2 k V z p .     ",
"        . 9 Q.J.P..X|./.] s.q./ W.'.[.`.F , , @ X , h h p . .   ",
"        . 9 V.K.P..X|.~.^ f.y.( _.].!. .= . .     . , < p . .   ",
"            * N.~. X X^.^ f.v.T.U.I.` 6 o .         X # p . .   ",
"              9 R ^.^.Q.B.' i.c.n 8 r _ 8.7.          X @       ",
"                5 { b.b.E P 3.g.& X 6 U 2.6.            .       ",
"                  . , p p @ K S.% > , X . .                     ",
"              . > C C C M # 2 C V h , X                         ",
"            . 2.5.C C C N # ! }.}.~ X .                         ",
"      . . . . *.-.F Z C N # T Y.Y.T @ 3 #                       ",
"      . + + . h c K A S m $ ; y w 7 4 g 1 #                     ",
"      . 7 0 . h ..:.K P H % ; y i i 0 $ g g .                   ",
"      . 0 t : & d ,.:.;.;.B 3 5 E.E.{ * h h .                   ",
"      . - 7 y - 6 d v +.o.f # O E E H O 1 2 .                   ",
"          o : : - . s h s # . . . o O O . .                     ",
"            . . .   . . . . . . . ; q q O .                     ",
"                                . o O +                         ",
"                                  . . .                         ",
"                                                                "
};
