/* XPM */
static char *_68d7b3ecc1c479cd1c14321b17039eaCPvAO22pOVTQQnz2[] = {
/* columns rows colors chars-per-pixel */
"16 16 5 1 ",
"  c None",
". c #4B021E",
"X c #7E1F10",
"o c #AE3926",
"O c #FFC5B8",
/* pixels */
"                ",
"                ",
"                ",
"    ... ...     ",
"   .ooo.ooo.    ",
"  .oOOooOoXo.   ",
"  .oOoooooXo.   ",
"  .ooooooXXo.   ",
"   .ooooXXo.    ",
"    .oXXXo.     ",
"     .oXo.      ",
"      .o.       ",
"       .        ",
"                ",
"                ",
"                "
};
