/* XPM */
static char *b398de68f06b4065c6bfd73977b55764VjmQ6DtMtQLfu2L1[] = {
/* columns rows colors chars-per-pixel */
"32 32 5 1 ",
"  c None",
". c #0B0A07",
"X c #505050",
"o c #FDA03B",
"O c white",
/* pixels */
"                                ",
"                                ",
"                                ",
"                                ",
"                                ",
"              .......           ",
"            ...XXXXXX.          ",
"           ..XXXXXXXX.          ",
"          ..XXXXXOOOOO.         ",
"         ..XXXXXXOOOOOO.        ",
"         .XXXXXXOOOOOOO.        ",
"        .XXXXXXOOO..OOoo.       ",
"        .XXXXXXOOO..Ooooo.      ",
"        .XXXXXOOOO..Oooooo.     ",
"       .XXXXXXOOOO..Ooooo.      ",
"       .XXX...OOOOOOOOoo.       ",
"       .XX.XXX.OOOOOOOO.        ",
"       .X.XXXXX.OOOOOOO.        ",
"       .X.XXXXX.OOOOOOO.        ",
"       .X.XXXX.OOOOOOOO.        ",
"       .XX.XXX.OOOOOOOO.        ",
"       .XX.XXX.OOOOOOOO.        ",
"       .XXX.X.....OOOO.         ",
"       .XXXX..ooo..OO..         ",
"       .XXX.ooooooo...          ",
"        ....oooooooo.           ",
"           .oooooooo.           ",
"            ........            ",
"                                ",
"                                ",
"                                ",
"                                "
};
