/* XPM */
static char *fa344c982dbe4ab0f25a916d79ae4285IM1Z8gZNObZxLoKL[] = {
/* columns rows colors chars-per-pixel */
"32 32 123 2 ",
"   c None",
".  c black",
"X  c #090001",
"o  c #342C23",
"O  c #37392A",
"+  c #481622",
"@  c #46372A",
"#  c #443C2B",
"$  c #4D3C2B",
"%  c #533E2C",
"&  c #29452E",
"*  c #2D4A2F",
"=  c #3E432E",
"-  c #3D4A2F",
";  c #2A4D30",
":  c #2C5533",
">  c #2D5B35",
",  c #2F5E38",
"<  c #345435",
"1  c #315937",
"2  c #345439",
"3  c #39573A",
"4  c #325D39",
"5  c #395A3A",
"6  c #2F6239",
"7  c #2F6839",
"8  c #32643B",
"9  c #38663F",
"0  c #346A3E",
"q  c #4C442E",
"w  c #55422E",
"e  c #5B452F",
"r  c #414830",
"t  c #5F4830",
"y  c #465638",
"u  c #4A5A39",
"i  c #515D3A",
"p  c #664D33",
"a  c #6D5134",
"s  c #66533E",
"d  c #655E3C",
"f  c #745837",
"g  c #7B5E36",
"h  c #775B39",
"j  c #7B5C3A",
"k  c #7F613A",
"l  c #733B5E",
"z  c #3F4A43",
"x  c #3D5542",
"c  c #396340",
"v  c #366D41",
"b  c #3C6A46",
"n  c #377243",
"m  c #397445",
"M  c #3B7648",
"N  c #3D7C4C",
"B  c #425846",
"V  c #435848",
"C  c #4B5750",
"Z  c #535B56",
"A  c #5C515E",
"S  c #5A5F5D",
"D  c #654B47",
"F  c #60454F",
"G  c #6F4F4C",
"H  c #695343",
"J  c #605F4D",
"K  c #695C49",
"L  c #775554",
"P  c #79565C",
"I  c #43694B",
"U  c #42704C",
"Y  c #407E4C",
"T  c #4E6E54",
"R  c #546257",
"E  c #536458",
"W  c #705560",
"Q  c #5F6A62",
"!  c #676567",
"~  c #6B6060",
"^  c #636A67",
"/  c #646468",
"(  c #706272",
")  c #736C77",
"_  c #78647A",
"`  c #7A6C7E",
"'  c #707674",
"]  c #85653E",
"[  c #89683F",
"{  c #816D47",
"}  c #896B40",
"|  c #927246",
" . c #94764B",
".. c #98774B",
"X. c #9F7D4B",
"o. c #8B6B53",
"O. c #8E5F7B",
"+. c #41834E",
"@. c #418353",
"#. c #468A57",
"$. c #4E945C",
"%. c #539C5E",
"&. c #926C81",
"*. c #857687",
"=. c #936D93",
"-. c #9C759C",
";. c #A36E97",
":. c #A471A3",
">. c #B37AB0",
",. c #BB7DB9",
"<. c #C07FBE",
"1. c #978199",
"2. c #9B849D",
"3. c #BB81BA",
"4. c #C08EBF",
"5. c #C08CBF",
"6. c #CA84C8",
"7. c #D08ACE",
"8. c #C690C4",
"9. c #D288D0",
"0. c #D489D1",
"q. c #DA90D8",
"w. c #D996D8",
/* pixels */
"                            6.V V 6.                            ",
"                          ,.E +.+.E ,.                          ",
"                        -.c N %.%.N 9 -.                        ",
"                      ( 0 M #.$.$.#.M 0 (                       ",
"                    ) M m N @.#.#.@.N m M )                     ",
"                  / 0 v 0 M m N N m M 8 v 8 /                   ",
"                ,.2 0 n n 0 N M m N 0 m m 0 2 ,.                ",
"              7.S ; m n 0 m Y v n Y m 0 n m ; S                 ",
"              *.m : > 8 8 N m 8 8 M Y 8 6 > : m *.              ",
"              3.v 8 ; > n m 0 , 4 8 M v > ; 0 b 3.              ",
"            ,.Q M v 1 ; : : > , , > : : ; > v m ^ <.            ",
"          ,.I > > v M 0 > : * * ; * : > 0 m m : > b ,.          ",
"            E 8 1 +.M 8 0 M 0 > , 0 m 8 8 m +.1 8 E             ",
"          >.U 0 1 8 8 8 m @.n 8 7 n @.m 6 8 8 1 0 U >.          ",
"          ,.x : 0 > ; 8 N N v 8 8 v N N 8 : , 0 : x ,.          ",
"            C m N m 4 4 Y 8 8 8 , 8 8 +.4 4 m N m C             ",
"        0./ > @.@.n v 8 1 : ; > : : : 2 8 m n @.@.: /           ",
"      0.B n 8 4 4 4 0 n 0 0 8 : : 8 0 0 n 0 1 4 4 0 m V         ",
"        :.4 n 6 : * : N M 0 8 n 0 0 0 M N : ; > 8 v 4 =.        ",
"        ;.3 M 8 0 0 < 9 v 0 7 N Y 8 0 v c : 0 8 8 M 2 ~ 8.      ",
"      &.} d < : m m , ; : 8 : N N > 6 : * 6 n M : < d } J       ",
"      H [ f % - v 8 0 0 : A :.^ ^ :.A : 0 0 7 0 r % h } s       ",
"      ! - q # @ * 0 m 7 Z X . . . . . Z 7 m 0 * @ @ q - !       ",
"      8.6 > : = q y 5 > _ . . . . . . _ > 5 y q = : > 6 4.      ",
"      8.8 , < q w p e , ` . . . . . . ` , w p w q < 6 6 8.      ",
"        T > - h } p t - _ . . . . . . _ - p p } h = > T         ",
"        1.: q e g k @ $ D + . . . . l D $ $ k h e q : 2.        ",
"        q.K ..f w a o w k P O.O.O.O.G k w o a w h ..K           ",
"          o.X.h o O & - | ] g ] k g ] | - & O o f X.o.          ",
"          W L F z : 6 > u .... .| .. .i > 6 : z F L W           ",
"                  1.' I 8 u i { k K u 6 I ' 1.                  ",
"                      w.2.I 6 > > > I 2.                        "
};
