/* XPM */
static char *_0cd4c27b54a4e5bfe64cccc573a95380PPDi7S1Ur0gqx9b[] = {
/* columns rows colors chars-per-pixel */
"32 32 64 1 ",
"  c #62B191",
". c #63B292",
"X c #64B393",
"o c #65B494",
"O c #65B495",
"+ c #66B595",
"@ c #66B596",
"# c #67B696",
"$ c #67B697",
"% c #68B797",
"& c #68B798",
"* c #69B898",
"= c #69B899",
"- c #6AB999",
"; c #6AB99A",
": c #6BBA9A",
"> c #6BBA9B",
", c #6CBB9B",
"< c #6CBB9C",
"1 c #6DBC9C",
"2 c #6DBC9D",
"3 c #6EBD9D",
"4 c #6EBD9E",
"5 c #6FBE9E",
"6 c #6FBE9F",
"7 c #70BF9F",
"8 c #70BFA0",
"9 c #71C0A0",
"0 c #71C0A1",
"q c #72C1A1",
"w c #72C1A2",
"e c #73C2A2",
"r c #73C2A3",
"t c #74C3A3",
"y c #74C3A4",
"u c #75C4A4",
"i c #75C4A5",
"p c #76C5A5",
"a c #76C5A6",
"s c #77C6A6",
"d c #77C6A7",
"f c #78C7A7",
"g c #78C7A8",
"h c #79C8A8",
"j c #79C8A9",
"k c #7AC9A9",
"l c #7AC9AA",
"z c #7BCAAA",
"x c #7BCAAB",
"c c #7CCBAB",
"v c #7CCBAC",
"b c #7DCCAC",
"n c #7DCCAD",
"m c #7ECDAD",
"M c #7FCEAE",
"N c #7FCEAF",
"B c #80CFAF",
"V c #80CFB0",
"C c #81D0B0",
"Z c #81D0B1",
"A c #82D1B1",
"S c #82D1B2",
"D c #83D2B2",
"F c #84D3B3",
/* pixels */
":7991::17%#tbb9%:>182>>8w>8dna88",
"17ttu971::#1hBh99yy98882>@8vSg8&",
"9999uhfut9119uu9wddwwgd88>>8dw88",
"91::9hCFhutu9,:1>w9>wNVvw9888>8w",
"77:::9bC1:1hu#%9>82@2vVvO2dvw>@>",
",11911991%1cf##78w8@>wywO8dd8@2w",
"1199991:99t91:#:88888>828w8>@@8d",
"91,1tu9,9hf:#,7:@&8ww888yww888>>",
"111tcCc99117ut7,8>>yvvw>yw8>@>8w",
"t1:7uht11tu911798>>wdgaw88wadw82",
"h9:199171uu91tfha8wwww88wyw8wvva",
"b919t1,9991,9bbhwwww8>>8888@8vNv",
"h71uu1%1971:1hhu>>888>2w;>>>8dd8",
"9119t1:11191::79>48w8>>888>>4882",
"179971111,791::9ddww>@@>d8>22>>a",
"1tu91999u::tc91udw88>>8w8@8nv8>w",
"19uu9::91119hbh121wy1::7:%7hbh1:",
"199919tuu1:1uhhh8899uuut1,1uut71",
"997:1hBBh919711u7718fCBu77997,19",
"1t9,1cFF917u9%#1991:tbCf,1tt7::,",
"19t1:9hh:#1hu:#1991::tfu,9u91:%:",
"1991,::1999u1##1711,:,9u9tt,#:19",
"9::7u9,,fhu9,::11,1uu719tu9,%:77",
"u#X9Bbuu:99919991%1bbu7979t9171:",
",111uhf9u1:tf917111uchu19uf7:,11",
"h9::99997799t9uhu9719t9919t99ff9",
"Ct:,9711191,1ubBut91,1991119hCbf",
"f1:uf1:,u9:#1cbh1199911191:1fbch",
"119hf,#177,#:uft,1uu71,,t7,,11tu",
"99uf7#:1:191%:19tt97:::19111,:19",
"9uu9:::1::1t9911uu97,,111,9uf911",
"7999171:9#.9FC9:99771791#:9BCh91"
};
