/* XPM */
static char *_bb64975763a428d841fbb5ecd42fd53sGNyevBlcJlmGAFb[] = {
/* columns rows colors chars-per-pixel */
"32 32 148 2 ",
"   c #1F221B",
".  c #1D2C1F",
"X  c #24241B",
"o  c #2A251D",
"O  c #252B1F",
"+  c #2B2D1F",
"@  c #30271E",
"#  c #33291F",
"$  c #3F311F",
"%  c #1C3221",
"&  c #1F3C24",
"*  c #252D20",
"=  c #2D2D26",
"-  c #352E21",
";  c #3A2E21",
":  c #263623",
">  c #283623",
",  c #223E25",
"<  c #2A3C24",
"1  c #343322",
"2  c #3B3323",
"3  c #363B25",
"4  c #393B25",
"5  c #333A2F",
"6  c #443423",
"7  c #4A3724",
"8  c #473925",
"9  c #4D3B26",
"0  c #523D27",
"q  c #543E28",
"w  c #593F28",
"e  c #224226",
"r  c #2B4127",
"t  c #214E27",
"y  c #244529",
"u  c #29442C",
"i  c #254C2A",
"p  c #2D4A2D",
"a  c #3B4329",
"s  c #26522C",
"d  c #28562E",
"f  c #29592F",
"g  c #33512F",
"h  c #2E4F31",
"j  c #314635",
"k  c #394135",
"l  c #334B38",
"z  c #394C3B",
"x  c #2A5431",
"c  c #2B5C32",
"v  c #37543D",
"b  c #39503D",
"n  c #355A3B",
"m  c #2D6236",
"M  c #2F6539",
"N  c #2F6839",
"B  c #326237",
"V  c #306639",
"C  c #326B3C",
"Z  c #36743F",
"A  c #564229",
"S  c #5B4329",
"D  c #664B2C",
"F  c #6C4E2E",
"G  c #62512E",
"H  c #6F502F",
"J  c #6C5432",
"K  c #6E563A",
"L  c #725331",
"P  c #7A5C34",
"I  c #483D4A",
"U  c #553B51",
"Y  c #643F54",
"T  c #3D5342",
"R  c #3C6243",
"E  c #357342",
"W  c #3B7D45",
"Q  c #414C45",
"!  c #464248",
"~  c #4A4B4D",
"^  c #49524D",
"/  c #465B4B",
"(  c #554956",
")  c #4F5454",
"_  c #4D5B52",
"`  c #555557",
"'  c #555158",
"]  c #5B595E",
"[  c #654454",
"{  c #6C4555",
"}  c #60505F",
"|  c #6F515C",
" . c #7D555A",
".. c #704D60",
"X. c #655064",
"o. c #6D506C",
"O. c #735975",
"+. c #7D557D",
"@. c #775D79",
"#. c #6E6372",
"$. c #706874",
"%. c #78677B",
"&. c #866737",
"*. c #83643A",
"=. c #906C3E",
"-. c #83557E",
";. c #3F834A",
":. c #42894A",
">. c #47904E",
",. c #855A86",
"<. c #965F96",
"1. c #816583",
"2. c #866D89",
"3. c #8A6E8C",
"4. c #9B749D",
"5. c #A25EA1",
"6. c #A364A2",
"7. c #AA62A1",
"8. c #A36BA3",
"9. c #AC64AB",
"0. c #AC6DAC",
"q. c #B568AA",
"w. c #AE77AF",
"e. c #B369B2",
"r. c #B96DB7",
"t. c #BF6DBD",
"y. c #BF71BE",
"u. c None",
"i. c None",
"p. c None",
"a. c None",
"s. c None",
"d. c None",
"f. c None",
"g. c None",
"h. c None",
"j. c None",
"k. c None",
"l. c None",
"z. c None",
"x. c None",
"c. c None",
"v. c None",
"b. c None",
"n. c None",
"m. c None",
"M. c None",
"N. c None",
/* pixels */
"M.M.M.M.M.M.M.M.M.M.M.M.N.d.~ u 6.M.M.M.M.M.M.M.M.M.M.M.M.M.M.M.",
"M.M.M.M.M.M.M.M.M.M.N.M.t.' C W v <.x.N.M.M.M.M.M.M.M.M.M.M.M.M.",
"M.M.M.M.M.M.M.M.M.N.c.6.v m :.>.Z d O.s.m.M.M.M.M.M.M.M.M.M.M.M.",
"M.M.M.M.M.M.M.M.M.v.,.s m E ;.:.W C c ~ d.N.M.M.M.M.M.M.M.M.M.M.",
"M.M.M.M.M.M.M.N.j.@.n V C C E E E N m M _ i.N.M.M.M.M.M.M.M.M.M.",
"M.M.M.M.M.M.M.v.O.s c d m m C C m M c f d Q a.N.M.M.M.M.M.M.M.M.",
"M.M.M.M.M.M.N.d.! d V m d C N B E x m m c e 5.N.M.M.M.M.M.M.M.M.",
"M.M.M.M.M.N.g.] e s m f c C c f N N d c m , b 0.n.M.M.M.M.M.M.M.",
"M.M.M.M.M.N.y.R d e i s C V s s c C x s y i m 1.v.m.M.M.M.M.M.M.",
"M.M.M.M.N.N.f._ f y e d m d s t s c m y , x c 8.m.N.M.M.M.M.M.M.",
"M.M.M.M.n.e.) x m f y e , e y i y e , e s c c b ,.j.N.M.M.M.M.M.",
"M.M.M.N.l.` f e c N f s s y , , y i i d C m y i n e.N.N.M.M.M.M.",
"M.M.N.M.n.,.f y M M d s C m s s d N m s m C i d ^ h.N.M.M.M.M.M.",
"M.M.m.N.s.T x i i y s c E m f s m C N s y y i s c <.N.M.M.M.M.M.",
"M.M.M.N.b.+.e c c y i C C f d s x B Z d e d m i ! a.N.N.M.M.M.M.",
"M.M.M.N.g.( c E N x i V i e i s i e c s d m Z C j 9.m.m.M.M.M.M.",
"M.M.N.e._ x x C c c c s s y e , e s i d c c V B s T ,.j.m.m.N.m.",
"M.N.m.+.x x s e , y c C c d d d d c m V s e e i x x ~ g.N.m.M.N.",
"M.M.N.h.I c c s p e c V f s m m d s m C y y i d N u 5.N.M.M.M.M.",
"M.M.N.n.o.x d x m s e i c s C C d c s , i c m s c z d.m.M.M.M.M.",
"M.M.N.g. .G 4 x f s s y , , d V e , e i s x c r A K q.M.M.M.M.M.",
"M.M.N.9.A H w < s m c i s s e e i d i d m d y 8 D D ..v.M.M.M.M.",
"m.N.N.z.} * - X e c s s c m f c c m s s x x . o > 5 u.N.M.M.M.M.",
"M.m.N.N.3.t & o ; + e m c B C C m m m s * 1 # . y / z.m.M.M.M.M.",
"M.M.M.N.p.n e 6 L F 3 c a r p h , a g p q P S : s 3.M.M.M.M.M.M.",
"M.M.M.M.n.%., 7 9 L 0 2 0 # ; ; - 6 9 2 H S 7 3 T k.N.M.M.M.M.M.",
"M.M.M.M.N.8.J *.9 7 6 X @ A L L D ; o # q 6 L *.| v.n.M.M.M.M.M.",
"M.M.M.M.N.7.P P $   : & o A q 0 w 6 % : O X D &. .v.M.M.M.M.M.M.",
"N.n.n.m.N.r.[ { U l i s , - D L 7 * i i s I Y { -.b.M.M.M.M.M.M.",
"m.N.N.N.N.M.v.v.v.p.2._ i 2 P =.q , n $.w.z.b.v.b.M.M.M.M.M.M.M.",
"n.N.N.n.N.n.N.N.N.N.N.l.4.k S J 4 #.p.n.N.N.M.M.N.M.M.M.M.M.M.M.",
"n.N.N.n.N.m.N.n.m.N.m.N.N.8.= o X.z.N.n.M.M.M.M.M.M.M.M.M.M.M.M."
};
