/* XPM */
static char *_626384542587[] = {
/* columns rows colors chars-per-pixel */
"32 32 232 2 ",
"   c #1D5605",
".  c #1F5B1B",
"X  c #2B4E05",
"o  c #344D0D",
"O  c #324909",
"+  c #2C5405",
"@  c #2C550B",
"#  c #2C5C0D",
"$  c #245807",
"%  c #31530C",
"&  c #34590D",
"*  c #39550A",
"=  c #2F4816",
"-  c #324D13",
";  c #3A4C17",
":  c #2B5915",
">  c #355214",
",  c #345911",
"<  c #3B5E1C",
"1  c #395818",
"2  c #2A660D",
"3  c #31730C",
"4  c #2C651B",
"5  c #2F6611",
"6  c #346315",
"7  c #346C16",
"8  c #33661A",
"9  c #356C1B",
"0  c #3B6C1C",
"q  c #3B651B",
"w  c #3B7514",
"e  c #36721B",
"r  c #3D731D",
"t  c #3C7B1D",
"y  c #377617",
"u  c #32640F",
"i  c #374A20",
"p  c #3D5620",
"a  c #3E5827",
"s  c #1C6520",
"d  c #296827",
"f  c #3E6921",
"g  c #3C7728",
"h  c #2A7638",
"j  c #397937",
"k  c #435813",
"l  c #416C1D",
"z  c #437B1B",
"x  c #435F2B",
"c  c #455C31",
"v  c #446D25",
"b  c #456729",
"n  c #427223",
"m  c #437B24",
"M  c #4A742C",
"N  c #457E29",
"B  c #4B7B2D",
"V  c #44742A",
"C  c #4B6636",
"Z  c #4D7431",
"A  c #4B7C33",
"S  c #437936",
"D  c #52723B",
"F  c #397D46",
"G  c #2D7C45",
"H  c #3F831B",
"J  c #378939",
"K  c #3E8529",
"L  c #45821D",
"P  c #448424",
"I  c #4C8326",
"U  c #4D8C25",
"Y  c #4B842B",
"T  c #468929",
"R  c #528A26",
"E  c #4D8433",
"W  c #4E8A34",
"Q  c #4D8439",
"!  c #4C8B3A",
"~  c #438536",
"^  c #528635",
"/  c #538C35",
"(  c #53823B",
")  c #58893A",
"_  c #4F9637",
"`  c #529532",
"'  c #559B37",
"]  c #5C9B34",
"[  c #55923D",
"{  c #5C933C",
"}  c #5B9B3C",
"|  c #599636",
" . c #4A9129",
".. c #628F3F",
"X. c #639A38",
"o. c #5CA43E",
"O. c #61A33B",
"+. c #6AA53E",
"@. c #398846",
"#. c #36924A",
"$. c #3C8D51",
"%. c #3B9757",
"&. c #2A8849",
"*. c #3D9B64",
"=. c #4E8B46",
"-. c #478B48",
";. c #558B48",
":. c #48974D",
">. c #549443",
",. c #5B9444",
"<. c #589943",
"1. c #4A8E51",
"2. c #449759",
"3. c #579858",
"4. c #558F55",
"5. c #639B43",
"6. c #639947",
"7. c #659857",
"8. c #719E5D",
"9. c #59A648",
"0. c #46A459",
"q. c #58A759",
"w. c #4CA14C",
"e. c #64A541",
"r. c #65A44C",
"t. c #6CAD4A",
"y. c #69AB48",
"u. c #71A948",
"i. c #6AB14B",
"p. c #7DB24F",
"a. c #63A253",
"s. c #6BA958",
"d. c #70A252",
"f. c #73AB54",
"g. c #77AB58",
"h. c #6CB555",
"j. c #74BB56",
"k. c #7BB952",
"l. c #7EB45D",
"z. c #76BE5C",
"x. c #7CBB5C",
"c. c #77B455",
"v. c #489968",
"b. c #549C65",
"n. c #5D9E64",
"m. c #4C9B71",
"M. c #619D67",
"N. c #49A96B",
"B. c #54A969",
"V. c #46A774",
"C. c #56A879",
"Z. c #57B677",
"A. c #6CAD63",
"S. c #66A866",
"D. c #76AC6A",
"F. c #69B865",
"G. c #7BB866",
"H. c #6AB57A",
"J. c #77B979",
"K. c #65AA7D",
"L. c #77C05D",
"P. c #79C269",
"I. c #77CB7B",
"U. c #81B551",
"Y. c #84BC63",
"T. c #88B96A",
"R. c #8AB875",
"E. c #83C55E",
"W. c #88C65E",
"Q. c #88C867",
"!. c #8ED46E",
"~. c #93D16D",
"^. c #94CA76",
"/. c #89D678",
"(. c #95D974",
"). c #8EC76A",
"_. c #A2DB75",
"`. c #A7DD7B",
"'. c #9DE17B",
"]. c #A4E67E",
"[. c #57AD85",
"{. c #5BB286",
"}. c #59B78A",
"|. c #5EBD95",
" X c #53B791",
".X c #4FB585",
"XX c #65AE89",
"oX c #68B788",
"OX c #76BB8A",
"+X c #69BA9C",
"@X c #67B796",
"#X c #72BC94",
"$X c #76BE97",
"%X c #6CBBA3",
"&X c #6CBAA7",
"*X c #71BEAA",
"=X c #5CC297",
"-X c #5DC089",
";X c #67C38A",
":X c #7DC087",
">X c #62C49C",
",X c #67C494",
"<X c #79C293",
"1X c #7AC59E",
"2X c #74C59A",
"3X c #78D086",
"4X c #66C4A1",
"5X c #6CC3A2",
"6X c #69CEA4",
"7X c #73C2A3",
"8X c #79C3A3",
"9X c #73C2AB",
"0X c #7BCAAB",
"qX c #78CBA8",
"wX c #6DD4A5",
"eX c #79CCB3",
"rX c #7ED3B2",
"tX c #84BD8A",
"yX c #85C688",
"uX c #8CDC85",
"iX c #8AC796",
"pX c #A8DA88",
"aX c #96E486",
"sX c #95E891",
"dX c #A6EA87",
"fX c #B4F48C",
"gX c #A4EE93",
"hX c #A9F495",
"jX c #B9FA97",
"kX c #B4ED8E",
"lX c #8BD1B0",
"zX c None",
/* pixels */
"lX&XXXzXzXzXzXzXzXzXzX[ g.d.^ l ..T.d.zXzXzXzXzXzXzXzXC.{.%X5X5X",
"eX%X@X{.zXzXzXzXzXzXE ,.^.pXg.,.T.pXR.) zXzXzXzXzXzXZ..X{.|.5XeX",
"6X&X|.{.oXzXzXzXzX<.<.W Y.kXl.6.^.^.g.[ _ zXzXzXzX-X-X}. X[. X%X",
"4X4X+X}.;XH.H.I.F.h.r.' l.Q.{ <.l.^.f.{ L.I.I.3XZ.I.-X-X+X|.|.4X",
"6X=X=X=X;XZ.q.I.gX/.9.o.i.` o.!.r.Q.9.K L.gX3XI.%.Z.-X-X>XwX>X>X",
"wX=X-XZ.B.%.J 9./.dXh.o.]  .L.!.y ' o.9./.sXF.J w.0.N.C.-X>X>X X",
"wX.XV.%.#.0.w.9.o.L.L.L.E.i.'  .i.j.L.L.h.9.9.i.0.#.#.N.V.}.>X>X",
"wXV.%.&.%.I.aXaXL.' i.fXfXo.H H P !.fX!.o.i.I.sXuXw.#.2.*.V.=X>X",
"-X*.%.#.:.h.uXgX!.y.(.].W.L.+.(.+.L.(.].E.j.'.dXP.q.@.#.%.*.[.5X",
"-X*.h @.q.J T Q.P Q.W.k.] +.fX].].O. .o.U L ` p.y _ ~ G F m.}.rX",
"H.$.h F.A.~ 7 ] u.+.R ] O.u.'.~.i.+.U ] ] k.U.z g 9.A.-.h v.m.,X",
"3.@.s J 7.r z Y.fXU.+.U.U L ] ] `  .u.k.X._.`.+.y K 3.~ h 2.C.8X",
"J.h >.F.7.e Y.jX`.+.+._.+.L P.z.o.2 !.!.] _._._.| g A.s.1.G V.{.",
"S.:.J.A.r.5 ) W.U.+.fXjXO.` !.hXz._ Q.jXW.+.~.U.I 7 s.J.b.$.oX2X",
"/.-.A.>.Y z I R z R ~.+.' dXsXhXhXh._ (.W.$ R z l R ,.q.-.%.,X,X",
"yXj N ~ l.s.e m z I z u U j.'.jXI.' T   L z z w I Q.W J h B.<X<X",
"D.( 6.^ d.6.5./ / 7 Y { e P h.Q. .t P Y m N X.X.u.d.a.g q.B.C.oX",
"( 8.7.: 6.Y.l.s.E >.s.6.T 3 w w H K <.f.X.Y 5.l.f.5.! g S.3.b.OX",
";.7.( 8 A { W <.Y G.Q.a./ w 3 w 3 y { ).T...I { 5.I N ~ -.1.v.OX",
"tXD S 7.( 0 $ 9 g l.Y.[ t y L ] Y 7 g s.Y...u u l 7 ! =.d b.#X#X",
"tXM.;.8.,.Q e $ 2 g / m 9 I u.Y.5.Y r B ^ r & 7 n ;.a.3.F oX1X#X",
"tXtX4.;.Q Q e 2 9 $ 5 9 w / Y.Y.,.N 9 8 6 6 u q l ,.;.1.C.<XXX@X",
"lXiXM.1.g 4 7 9 Y 0 7 7 2 7 Y Y m 8 6 9 q n n q 6 9 g 4.OXiXXX0X",
"lXtXtXJ.j 4 / E r n m M 9 6 q r 0 6 f M v M ) Z [ 4 ;.J.XX$X*X&X",
"lXOXiXiX7.N Y m w l B v 6 n ^ B Z f f M A v v Z M A D.tXK.@XlX*X",
"lXXX<XOX>.d 8 # q q v v v Z ( S ;.b f v v < , 6 6 A J.tXXXXX*X&X",
"*X1X1XH.=.4 $ $ % + < k b Z C p D b f < k , @ @ $ g M.J.OX+X*X&X",
"*X$XXX4.j $ $ + X + o o 1 b f = b > - > > > % , @ 4 j M.#XlX9X&X",
"+X@Xm.h .   X , O * O - c c c c C < - - o X @ % : $ 4 4.OX8X%X9X",
"lX*XC.F . $ + & O k * O p c C D C b 1 - - % % @ X $ d 3.OX#X%XeX",
"eX0XoXb.j 6 + X O k = O i c a C a 1 ; - > > > & $ 8 =.H.<X2X%X9X",
"eX0XlX:XM.Q l * O k ; = ; i i a = = = = ; 1 , & B ;.A.:X<X8X&X|."
};
